<svg xmlns="http://www.w3.org/2000/svg" viewBox="0 0 5328 5328"><defs><clipPath id="a"><path d="m16508 17697-1021 301v-1l1021-300 21 27-21-27m7237 9057 20 25-20-25"/></clipPath><clipPath id="c"><path d="m16529 17723 7216 9030-7216-9030m-1042 274h-1l-304 89 305-89"/></clipPath><linearGradient id="b" x2="1" gradientTransform="matrix(7853 10056 9569.4 -8101.7 15771 17691)" gradientUnits="userSpaceOnUse"><stop offset="0" stop-color="#fff"/><stop offset="0" stop-color="#fff"/><stop offset="1" stop-color="#fff"/></linearGradient></defs><path fill="#06cdef" d="M0 5328h5328V0H0z"/><path fill="#e6d8dc" d="m3796 3630-4 15c-7 23-22 41-43 53l-840 453c-79 43-172 53-259 30L557 3606a88 88 0 0 1-7-167l1162-433c17-6 36-7 53-3l1969 517c14 4 27 11 37 21 24 22 35 56 25 89m-81-121-1855-488c-72-19-115-93-96-165l361-1375c19-73 93-116 165-97l1855 487c72 19 115 93 96 166l-361 1375c-19 72-93 116-165 97"/><path fill="#f5eff1" d="m4106 1941-1835-482a136 136 0 0 0-119 25 108 108 0 0 1 131-74l1802 473c11 17 19 37 22 58"/><path fill="#c18ef5" d="m3518 3310-1528-401a84 84 0 0 1-60-103l315-1200c12-45 58-72 103-60l1528 401c44 12 71 58 60 103l-316 1200a84 84 0 0 1-102 60"/><g clip-path="url(#a)" transform="matrix(.1333 0 0 -.1333 0 5328)"><path fill="url(#b)" d="m16508 17697-1021 301v-1l1021-300 21 27-21-27m7237 9057 20 25-20-25"/></g><g clip-path="url(#c)" transform="matrix(.1333 0 0 -.1333 0 5328)"><path fill="url(#b)" d="m16529 17723 7216 9030-7216-9030m-1042 274h-1l-304 89 305-89"/></g><path fill="#000072" d="M3721 3483c58 15 118-20 133-78l361-1375c16-58-19-118-77-133l-1855-487a108 108 0 0 0-132 77l-362 1376a108 108 0 0 0 78 133l1854 487m28 57c-14 0-28-2-41-6l-1855-487a161 161 0 0 1-115-198l361-1375a161 161 0 0 1 198-116l1854 487c87 23 139 112 116 198l-361 1376c-20 72-85 121-157 121"/><path fill="#b8adc7" d="m3749 3486-28-3-73-19c44-13 81-48 94-96l361-1376c5-17 6-34 3-51l19 5c43 11 76 42 91 80l-1 4-361 1375c-13 49-57 81-105 81"/><path fill="#c4bfd8" d="M4216 2026c-15-38-48-69-91-80l-19-5c-2-21-10-41-21-58l53 14c57 15 91 72 78 129"/><path fill="#000072" d="M3768 3506c-9-5-18-9-27-11l-106-28 13-3 73 19a109 109 0 0 0 133-78l361-1375 1-4c13-57-21-114-78-129l-53-14c-18-26-44-47-77-56l142 38c72 19 115 93 96 165l-361 1376c-15 56-63 94-117 100M2326 1560a67 67 0 0 0-65 50l-315 1200c-9 36 12 73 48 83l1528 401a67 67 0 0 0 82-48l315-1200c10-36-12-73-48-83l-1527-401-18-2zm1213 1769c-9 0-17-1-26-3l-1527-401c-54-14-86-70-72-123l315-1200a100 100 0 0 1 123-72l1528 401a100 100 0 0 1 72 123l-316 1200a99 99 0 0 1-97 75"/><path fill="#000072" d="M1743 3027c-7 0-14 1-21 4L559 3464a62 62 0 0 0-32 87c8 15 22 25 38 30l2092 574c81 22 166 12 240-28l839-453c15-8 25-21 30-36l4-15a61 61 0 0 0-43-77l-1968-517-16-2m1000 1193c-33 0-67-5-100-14L550 3632a114 114 0 0 1-79-143c10-34 36-62 70-75l1162-433c22-8 46-10 69-4l1969 518a115 115 0 0 1 80 143l-4 15c-9 29-29 54-55 68l-840 453c-56 30-117 46-179 46"/><path fill="#b8adc7" d="M2743 4166c-29 0-57-3-86-11L565 3581a61 61 0 0 1-43-77c5-18 19-33 37-40l35-13 2044 571a362 362 0 0 0 264-28l843-440 8 6c17 16 24 40 17 63l-4 15c-5 15-15 28-30 36l-839 454c-48 25-101 38-154 38"/><path fill="#000072" d="M2743 4193c-31 0-63-4-93-12L557 3607a88 88 0 0 1-7-168l44 12-35 13a62 62 0 0 0-32 88c8 14 21 24 37 29l2093 574a325 325 0 0 0 240-27l839-454c15-8 25-21 30-36l4-15a61 61 0 0 0-25-69l26-13c24 22 35 56 25 89l-5 15c-6 23-21 42-42 53l-840 453c-51 28-109 42-166 42"/><path fill="#000072" d="M1701 3531c-13 0-25 3-37 8l-108 52c-8 4-8 12-8 14 1 3 2 10 11 13l460 127c24 7 48 4 70-7l99-51c8-4 8-12 8-14-1-2-2-10-11-12l-462-127c-7-2-15-3-22-3zm344 251c-12 0-23-1-34-5l-461-127c-19-5-33-22-35-42s9-38 27-47l108-52c25-12 54-15 82-7l462 127a47 47 0 0 1 9 88l-99 51c-18 9-39 14-59 14m39-265h1l683 188 88-40-94-25-139-37-1-1-691-184-78 36zm685 222h-4l-689-189v-1l-276-75a17 17 0 0 1-3-31l126-57c3-2 7-2 11-1l696 185h1l139 37 140 38a17 17 0 0 1 2 31l-136 62-7 1"/><path fill="#000072" d="m2818 3719 201 55c19 5 39 3 56-5l402-194c4-1 4-5 4-7 0-1-1-5-5-6l-481-129-695-186-507-137c-27-7-56-5-82 6l-84 33v1l-312 127c-10 4-11 13-11 15 0 3 2 11 11 14l488 134 120-54c3-2 7-2 11-1l696 185h1l139 37 140 38a17 17 0 0 1 2 31zm223 91c-11 0-21-1-31-4l-245-67a17 17 0 0 1-3-32l94-42-94-25-139-37-1-1-691-184-120 55c-3 1-7 2-11 1l-493-136c-21-5-35-23-36-44-1-22 11-41 31-48l313-127 1-1 82-33c33-14 69-16 103-7l507 136 695 187 481 129c17 5 29 18 30 35 2 17-7 33-22 40l-402 194c-16 7-33 11-49 11"/><path fill="#000072" d="M1391 3361a17 17 0 0 1-7-32l496-226a17 17 0 1 1 14 31l-496 225-7 2m138 38a17 17 0 0 1-7-32l497-226a17 17 0 1 1 14 30l-497 226-7 2m138 38a17 17 0 0 1-7-32l498-227a17 17 0 1 1 14 30l-498 227-7 2m263-20a17 17 0 0 1-7-31l374-171 7-1a17 17 0 0 1 6 32l-373 170-7 1m139 37a17 17 0 0 1-7-31l374-170a17 17 0 1 1 14 30l-374 170-7 1m139 38a17 17 0 0 1-6-32l373-170a17 17 0 1 1 14 30l-374 170-7 2m140 37a17 17 0 0 1-7-32l373-170a17 17 0 1 1 14 31l-373 169-7 2m139 37a17 17 0 0 1-7-32l373-169a17 17 0 1 1 14 30l-373 169-7 2m7 98a17 17 0 0 1-7-32l505-230a17 17 0 1 1 14 30l-506 230-6 2m137 37a17 17 0 0 1-7-31l135-62a17 17 0 1 1 14 31l-135 61-7 1"/><path fill="#000072" d="M2766 3640a17 17 0 0 1-7-32l142-64 229-105a17 17 0 1 1 15 31l-231 104v1l-141 64-7 1m139 37a17 17 0 0 1-7-31l372-169a17 17 0 1 1 14 30l-372 169-7 1m2 100a17 17 0 0 1-7-32l509-231a17 17 0 1 1 14 30l-509 232-7 1"/><path fill="#000072" d="m3431 3633-5-1-687-183h-1l-139-37-982-262h-1a17 17 0 0 1 10-32l982 262 139 37 688 183a17 17 0 0 1-4 33m-110 53-5-1-413-110-139-37-1269-338a17 17 0 0 1 8-32l1269 338h1l139 37 413 110a17 17 0 0 1-4 33m-137 66-4-1-279-74a17 17 0 1 1 9-32l279 74a17 17 0 0 1-5 33m-1254-335h-5l-582-155a17 17 0 1 1 9-32l582 155a17 17 0 0 1-4 32m744-1551c-10 56-53 102-103 128-84 42-190 31-267-21h104c102-2 194-32 266-107m742 198c26 101 93 172 181 222 28 17 59 33 91 51-74 6-149-18-206-68-56-49-91-132-66-205m-247 576a27 27 0 0 1-13-50l247-129a27 27 0 0 1 25 47l-247 129-12 3"/><path fill="#000072" d="M3385 2680c-7 0-14-3-20-9l-186-208a27 27 0 1 1 40-36l186 208a27 27 0 0 1-20 45m-766-345a47 47 0 1 1-93 0 47 47 0 0 1 93 0m357 401c-6 0-11-1-16-3-33-13-40-70-100-80-46-8-71 11-97 14-13 1-26-2-42-14-25-19 25-157 164-128 184 38 139 211 91 211"/><path fill="#ff85ab" d="M2964 2705c0 10-1 19-4 28-33-13-40-70-100-80-46-7-71 11-97 14a104 104 0 0 1 201 38"/><path fill="#000072" d="M2737 2632zm102-7c8 0 16 0 25 2 47 7 69 37 85 59 13 17 18 23 26 23 6-4 19-28 16-60-3-29-22-79-112-98-56-12-91 9-110 29a93 93 0 0 0-28 55c13 8 21 6 41 0 15-5 34-10 57-10zm137 138c-36 0-55-25-70-45-13-19-25-35-50-39-24-4-41 1-58 7-25 7-55 17-93-12-20-15-23-48-6-85 25-55 90-111 191-90 124 26 161 111 154 176-5 51-34 88-68 88"/><path fill="#f5cf8e" d="m3904 2380-87 34c-34 13-72-4-85-38l-176-452c-13-34 4-72 38-85l87-34c34-13 72 4 85 37l176 452c13 34-4 72-38 86"/><path fill="#000072" d="M3904 2380zm-199-553c-5 0-10 1-14 3l-87 34a39 39 0 0 0-23 50l176 452a39 39 0 0 0 51 23l87-34c20-8 30-31 22-51l-175-452a39 39 0 0 0-37-25zm88 618a92 92 0 0 1-86-59l-175-452a92 92 0 0 1 52-120l87-34a92 92 0 0 1 120 53l176 452c18 47-5 101-53 120l-87 33c-11 5-22 7-34 7"/><path fill="#e67b60" d="m3809 2215-32 12c-20 8-43-2-51-22l-58-151c-8-20 2-43 22-50l32-13c20-8 42 2 50 22l59 151c8 20-2 43-22 51"/><path fill="#fff" d="M2435 937c91 157 266 249 433 144 71-47 119-123 150-202 6-15 12-32 16-48l39 8c-10 100 2 209 61 294 72 100 201 127 317 96 15-4 29-8 43-14-54 29-116 45-179 42-136-5-238-104-268-235-16-62-20-125-13-189l38 8c-35 123-111 248-236 296-173 64-333-40-401-200M1236 2722c80-117 34-244-113-255-16-1-34-1-50 1l-8-39c13-4 28-9 41-15 37-17 72-42 91-78 28-58 8-122-31-170 26 19 46 45 58 76 13 31 14 68 3 100-23 66-88 106-152 125l-8-39c40-4 79-1 117 11 132 44 152 195 52 283m3352-495c-49 22-95 55-126 98-52 73-50 181 12 247 34 38 81 63 130 81 25 10 144 35 173 43-24 1-149 6-169 10-31 5-61 13-88 25a191 191 0 0 0-114 247c6 21 15 40 26 59-14-17-26-35-35-55-54-113-5-234 108-284 41-19 85-31 130-35l-3 39c-84-20-168-64-213-142-29-52-32-115-15-172 25-83 102-141 184-161M3581 4225c-43-32-94-57-146-64-89-12-184 40-213 126-17 48-17 101-10 152 3 28 36 145 43 173-12-19-75-128-89-144-18-24-39-47-62-66-86-72-195-64-273 16-14 15-28 32-39 50 32-84 115-148 206-144 94 5 170 74 219 148l-36 16c-21-84-22-179 26-255 32-50 87-83 145-94 85-17 172 24 229 86m-2143-22c-8-53-27-106-61-148-56-69-160-97-240-56-46 23-83 62-113 104-17 21-73 129-88 155 4-23 34-145 35-166 4-30 5-61 1-91a191 191 0 0 0-208-177c-21 1-42 4-63 9 19-9 40-15 62-19 123-21 226 59 244 181 7 45 7 90-2 135l-37-13c43-76 108-145 195-167 58-14 120 0 170 32 73 47 107 137 105 221m-15-2954c-107 70-175 193-111 315 50 91 180 105 266 62 27-13 53-38 44-69-3-14-13-28-27-33-55-15-116 39-147 80-63 81-71 201-17 289 46 77 135 116 221 131 17 3 35 5 54 6-37 2-74-1-110-8-72-14-145-52-187-115-67-97-60-231 9-326 39-54 113-115 186-96 32 9 53 39 59 71 8 47-29 87-67 105-71 34-157 33-227-1-91-44-125-160-94-251 25-72 82-126 148-160m2657 1997c54-28 120-28 177-5 59 23 101 82 112 144 19 83-17 243-126 239-34-4-67-27-77-61-9-37 4-73 24-103 53-79 148-126 243-124a260 260 0 0 1 256 220c-10-28-22-55-38-79-99-151-330-143-428 4-13 20-24 46-19 69 8 32 51 45 77 25 60-48 72-156 47-225-33-98-155-136-248-104m348-1961c-34-11-71-9-102 7-61 28-70 113-41 167 7 10 15 21 27 21 7 1 20-5 22-14 3-11-2-25-7-36a158 158 0 0 0-283 17c17-79 88-130 169-126 60 3 118 37 148 90 19 31 22 79-15 99-36 22-76 3-94-32-19-37-21-79-11-119 8-29 25-56 51-73 40-25 96-26 136-1"/></svg>